<svg xmlns="http://www.w3.org/2000/svg" viewBox="0 0 123.36 42.13"><defs><style>.cls-1{fill:#f15a31;}</style></defs><g id="Layer_2" data-name="Layer 2"><g id="Layer_1-2" data-name="Layer 1"><path class="cls-1" d="M121.32.18a2.05,2.05,0,1,0,2,2.05A2.05,2.05,0,0,0,121.32.18Zm0,3.79a1.74,1.74,0,1,1,1.74-1.74A1.74,1.74,0,0,1,121.32,4Z"/><path class="cls-1" d="M121.92,2.49a.71.71,0,0,0-.23-.18.64.64,0,0,0,.42-.2.56.56,0,0,0,.14-.39.63.63,0,0,0-.09-.33.5.5,0,0,0-.25-.2,1.42,1.42,0,0,0-.49-.06h-.89V3.24H121V2.36H121l.21,0a.38.38,0,0,1,.13.09,3,3,0,0,1,.23.31l.3.46h.51l-.26-.41A1.81,1.81,0,0,0,121.92,2.49ZM121.27,2H121V1.49h.65a.3.3,0,0,1,.16.08.29.29,0,0,1,0,.17.27.27,0,0,1,0,.16.27.27,0,0,1-.12.09A2.47,2.47,0,0,1,121.27,2Z"/><polygon class="cls-1" points="76.77 0.44 70.59 0.44 70.59 26.47 70.59 26.47 70.59 26.47 96.62 26.47 96.62 20.29 76.77 20.29 76.77 0.44"/><path class="cls-1" d="M9.63,8.17C7.2,7.34,6.41,6.83,6.41,5.88s.87-1.59,2.37-1.59a10.07,10.07,0,0,1,4.3,1.12l1.08-4.25A13.19,13.19,0,0,0,8.57,0C3.64,0,.5,2.8.5,6.53.47,8.86,2,11.1,6.15,12.46c2.28.77,2.91,1.26,2.91,2.29s-.79,1.64-2.65,1.64a11.85,11.85,0,0,1-5.29-1.48L0,19.32a14.17,14.17,0,0,0,6.42,1.4C12.11,20.72,15,18,15,14.28,15,11.39,13.4,9.45,9.63,8.17Z"/><path class="cls-1" d="M27.51,0c-6.86,0-10,5.57-10,10.62,0,6.18,3.86,10.1,10.59,10.1a19.21,19.21,0,0,0,7.19-1.26l-.84-4.17a16.52,16.52,0,0,1-5.46.84c-2.88,0-5.41-1.22-5.59-3.78H36.15a12.47,12.47,0,0,0,.22-2.44C36.37,5,33.94,0,27.51,0ZM23.34,8.13c.17-1.65,1.23-4,3.83-4,2.81,0,3.47,2.54,3.46,4Z"/><path class="cls-1" d="M48.91,9.67c-.45,1.71-.79,3.19-1.1,4.83h-.13c-.31-1.59-.65-3.15-1.14-4.83L43.88.45h-6.7L44.4,20.29h6.15L57.94.45H51.45Z"/><rect class="cls-1" x="60.34" y="0.45" width="6.18" height="19.84"/><path class="cls-1" d="M118.28,9.91C118.28,5,115.85,0,109.42,0c-6.86,0-10,5.57-10,10.62,0,6.18,3.86,10.1,10.58,10.1a19.21,19.21,0,0,0,7.19-1.26l-.84-4.17a16.52,16.52,0,0,1-5.46.84c-2.87,0-5.4-1.22-5.59-3.78h12.76A11.72,11.72,0,0,0,118.28,9.91Zm-13-1.78c.17-1.65,1.23-4,3.83-4,2.81,0,3.47,2.54,3.46,4Z"/><polygon class="cls-1" points="87.04 0.44 80.86 0.44 80.86 16.2 80.86 16.2 80.86 16.2 96.62 16.2 96.62 10.02 87.04 10.02 87.04 0.44"/><path class="cls-1" d="M3.9,38.85l-.68,1.32H2.31l3.11-6,1.94,6H6.49l-.41-1.32Zm.36-.72H5.85l-.61-2Z"/><path class="cls-1" d="M16,36.74l-2.2,3.79-.69-2.21L11.9,40.53l-1.24-3.79h.85l.6,2.09,1.22-2.18L14,38.83l1.12-2.09Z"/><path class="cls-1" d="M20.24,38.42a1.77,1.77,0,0,1-.55,1.32,1.82,1.82,0,0,1-1.34.54A1.88,1.88,0,0,1,17,39.77a1.85,1.85,0,0,1,0-2.61,1.93,1.93,0,0,1,1.38-.53,1.83,1.83,0,0,1,1.33.5A1.72,1.72,0,0,1,20.24,38.42Zm-.81,0a1.06,1.06,0,0,0-.29-.78,1,1,0,0,0-.75-.3,1.09,1.09,0,0,0-.81.33,1.2,1.2,0,0,0-.31.84,1.13,1.13,0,0,0,.3.82,1.06,1.06,0,0,0,1.55,0A1.29,1.29,0,0,0,19.43,38.38Z"/><path class="cls-1" d="M22.46,36.74l0,.3a1.21,1.21,0,0,1,.82-.39,1,1,0,0,1,.67.27l-.52.66a.64.64,0,0,0-.44-.19.6.6,0,0,0-.27.06.52.52,0,0,0-.2.19.84.84,0,0,0-.14.33,2.87,2.87,0,0,0-.09.49L22,40.17h-.81l.43-3.43Z"/><path class="cls-1" d="M26,34l-.75,6.15h-.81L25.21,34Z"/><path class="cls-1" d="M30.88,34l-.75,6.15h-.8l0-.37a1.88,1.88,0,0,1-.52.36,1.36,1.36,0,0,1-.53.09,1.57,1.57,0,0,1-1.18-.48,1.73,1.73,0,0,1-.45-1.24,1.87,1.87,0,0,1,.5-1.34,1.66,1.66,0,0,1,1.26-.53,1.47,1.47,0,0,1,.66.13,2.07,2.07,0,0,1,.57.47l.4-3.24Zm-1.32,4.29a.93.93,0,0,0-1-1,1,1,0,0,0-.79.35,1.36,1.36,0,0,0-.31.9,1,1,0,0,0,.27.73.94.94,0,0,0,.7.27,1,1,0,0,0,.78-.37A1.34,1.34,0,0,0,29.56,38.31Z"/><path class="cls-1" d="M38,38.42a1.76,1.76,0,0,1-.54,1.32,1.82,1.82,0,0,1-1.34.54,1.86,1.86,0,0,1-1.36-.51,1.69,1.69,0,0,1-.53-1.29,1.74,1.74,0,0,1,.55-1.32,1.92,1.92,0,0,1,1.38-.53,1.86,1.86,0,0,1,1.33.5A1.72,1.72,0,0,1,38,38.42Zm-.81,0a1,1,0,0,0-.29-.78,1,1,0,0,0-.75-.3,1.06,1.06,0,0,0-.8.33,1.2,1.2,0,0,0-.32.84,1.13,1.13,0,0,0,.3.82,1,1,0,0,0,.77.32,1,1,0,0,0,.78-.35A1.25,1.25,0,0,0,37.18,38.38Z"/><path class="cls-1" d="M40.18,37.49l-.33,2.68H39l.33-2.68h-.52l.09-.75h.53l.19-1.53a1.5,1.5,0,0,1,.33-.9.93.93,0,0,1,.73-.29,1.67,1.67,0,0,1,.68.19l-.08.7a.69.69,0,0,0-.42-.18.37.37,0,0,0-.32.15,1.26,1.26,0,0,0-.15.55l-.16,1.31H41l-.09.75Z"/><path class="cls-1" d="M45.73,34l-.37,3a1.92,1.92,0,0,1,.55-.32,1.78,1.78,0,0,1,.53-.08,1.52,1.52,0,0,1,1.15.48A1.69,1.69,0,0,1,48,38.35a1.89,1.89,0,0,1-.51,1.35,1.67,1.67,0,0,1-1.27.55A1.63,1.63,0,0,1,45,39.71l-.06.46h-.81L44.93,34Zm1.51,4.35a1.09,1.09,0,0,0-.28-.75.94.94,0,0,0-.71-.29,1,1,0,0,0-.78.35,1.29,1.29,0,0,0-.31.88,1,1,0,0,0,.27.73.9.9,0,0,0,.69.29,1,1,0,0,0,.79-.35A1.22,1.22,0,0,0,47.24,38.37Z"/><path class="cls-1" d="M49.86,38.74a.82.82,0,0,0,.26.62,1,1,0,0,0,.68.25,1,1,0,0,0,.87-.42l.6.33a2.06,2.06,0,0,1-.65.59,1.86,1.86,0,0,1-.83.17,1.73,1.73,0,0,1-1.27-.47A1.67,1.67,0,0,1,49,38.55a2,2,0,0,1,.52-1.37,1.71,1.71,0,0,1,1.31-.55,1.51,1.51,0,0,1,1.2.49,1.94,1.94,0,0,1,.45,1.34c0,.06,0,.15,0,.28Zm1.85-.65a.83.83,0,0,0-.88-.79.92.92,0,0,0-.92.79Z"/><path class="cls-1" d="M57.3,36.74l-.42,3.43h-.8l0-.37a1.61,1.61,0,0,1-1.07.45,1.48,1.48,0,0,1-1.11-.46,1.73,1.73,0,0,1-.43-1.2A2,2,0,0,1,54,37.2a1.64,1.64,0,0,1,1.27-.54,1.48,1.48,0,0,1,.63.12,1.85,1.85,0,0,1,.53.41l.06-.45Zm-1,1.62a1,1,0,0,0-.26-.74.88.88,0,0,0-.68-.29,1,1,0,0,0-.75.35,1.28,1.28,0,0,0-.31.88,1.05,1.05,0,0,0,.26.73.81.81,0,0,0,.65.29,1,1,0,0,0,.77-.36A1.23,1.23,0,0,0,56.32,38.36Z"/><path class="cls-1" d="M61.67,36.74l-.24,2a4.3,4.3,0,0,1-.07.45,1.74,1.74,0,0,1-.1.32,1.14,1.14,0,0,1-.34.43,1.7,1.7,0,0,1-1.07.32,1.48,1.48,0,0,1-1-.33,1.09,1.09,0,0,1-.38-.87,1.48,1.48,0,0,1,0-.2,1.38,1.38,0,0,1,0-.26l.22-1.85h.8l-.23,1.93a1.83,1.83,0,0,0,0,.21,1,1,0,0,0,0,.16c0,.36.21.54.64.54a.62.62,0,0,0,.5-.18,1.1,1.1,0,0,0,.22-.63l.25-2Z"/><path class="cls-1" d="M63.87,37.49l-.33,2.68h-.81l.33-2.68h-.45l.09-.75h.46l.19-1.59h.81L64,36.74h.74l-.09.75Z"/><path class="cls-1" d="M68.88,36.74l-3.1,5.39h-.92l1.38-2.39-1.22-3h.86l.84,2.19L68,36.74Z"/><path class="cls-1" d="M77.2,36.74,75,40.53l-.69-2.21-1.23,2.21-1.24-3.79h.85l.6,2.09,1.22-2.18.66,2.18,1.12-2.09Z"/><path class="cls-1" d="M78.92,36.74l-.42,3.43h-.81l.43-3.43Zm.25-1.63a.41.41,0,0,1-.12.3.43.43,0,0,1-.62,0,.48.48,0,0,1-.13-.32.38.38,0,0,1,.13-.3.42.42,0,0,1,.3-.13.43.43,0,0,1,.31.14A.42.42,0,0,1,79.17,35.11Z"/><path class="cls-1" d="M81.11,37.49l-.33,2.68H80l.33-2.68h-.46l.09-.75h.46l.19-1.59h.81l-.2,1.59h.74l-.09.75Z"/><path class="cls-1" d="M84,34l-.37,3a1.58,1.58,0,0,1,1-.37,1.18,1.18,0,0,1,.8.26.86.86,0,0,1,.31.69,1.85,1.85,0,0,1,0,.23c0,.09,0,.18,0,.29l-.25,2h-.81l.26-2.08c0-.11,0-.21,0-.3,0-.31-.18-.46-.54-.46-.51,0-.81.35-.89,1l-.23,1.8h-.8L83.24,34Z"/><path class="cls-1" d="M88.11,36.74l-.42,3.43h-.8l.42-3.43Zm.25-1.63a.41.41,0,0,1-.12.3.43.43,0,0,1-.62,0,.47.47,0,0,1-.12-.32.41.41,0,0,1,.12-.3.42.42,0,0,1,.3-.13.43.43,0,0,1,.31.14A.42.42,0,0,1,88.36,35.11Z"/><path class="cls-1" d="M90.34,36.74l0,.32a1.49,1.49,0,0,1,1-.4,1.13,1.13,0,0,1,.81.28,1,1,0,0,1,.29.76,5.18,5.18,0,0,1,0,.63l-.23,1.84h-.8l.25-2c0-.07,0-.14,0-.2V37.8c0-.31-.17-.47-.5-.47a.77.77,0,0,0-.53.19,1,1,0,0,0-.27.36,1.46,1.46,0,0,0-.08.27c0,.11,0,.23-.06.37l-.2,1.65h-.81l.43-3.43Z"/><path class="cls-1" d="M97.34,36.74l0,.3a1.21,1.21,0,0,1,.82-.39,1,1,0,0,1,.66.27l-.51.66a.68.68,0,0,0-.44-.19.55.55,0,0,0-.48.25,1.3,1.3,0,0,0-.14.33c0,.14-.06.3-.09.49l-.21,1.71h-.8l.42-3.43Z"/><path class="cls-1" d="M100,38.74a.8.8,0,0,0,.27.62.91.91,0,0,0,.67.25,1,1,0,0,0,.87-.42l.6.33a2,2,0,0,1-.65.59,1.86,1.86,0,0,1-.83.17,1.73,1.73,0,0,1-1.27-.47,1.67,1.67,0,0,1-.47-1.26,1.92,1.92,0,0,1,.52-1.37,1.69,1.69,0,0,1,1.3-.55,1.55,1.55,0,0,1,1.21.49,2,2,0,0,1,.44,1.34c0,.06,0,.15,0,.28Zm1.85-.65a.83.83,0,0,0-.88-.79.92.92,0,0,0-.92.79Z"/><path class="cls-1" d="M107.47,36.74l-.42,3.43h-.8l0-.37a1.65,1.65,0,0,1-1.07.45,1.45,1.45,0,0,1-1.11-.46,1.68,1.68,0,0,1-.43-1.2,2,2,0,0,1,.49-1.39,1.66,1.66,0,0,1,1.28-.54,1.46,1.46,0,0,1,.62.12,1.88,1.88,0,0,1,.54.41l0-.45Zm-1,1.62a1,1,0,0,0-.27-.74.87.87,0,0,0-.67-.29,1,1,0,0,0-.76.35,1.33,1.33,0,0,0-.31.88,1.05,1.05,0,0,0,.26.73.81.81,0,0,0,.65.29,1,1,0,0,0,.77-.36A1.23,1.23,0,0,0,106.5,38.36Z"/><path class="cls-1" d="M111.43,37.07l-.1.82a1.94,1.94,0,0,0-.48-.45,1,1,0,0,0-.52-.14.92.92,0,0,0-.75.34,1.28,1.28,0,0,0-.3.87,1.12,1.12,0,0,0,.28.8.94.94,0,0,0,.72.3,1.37,1.37,0,0,0,.88-.37l-.1.85a2.5,2.5,0,0,1-.89.19,1.67,1.67,0,0,1-1.23-.49,1.8,1.8,0,0,1-.47-1.28,1.88,1.88,0,0,1,.51-1.34,1.67,1.67,0,0,1,1.27-.54A1.92,1.92,0,0,1,111.43,37.07Z"/><path class="cls-1" d="M113.85,34l-.37,3a1.61,1.61,0,0,1,1-.37,1.2,1.2,0,0,1,.8.26.9.9,0,0,1,.31.69,2,2,0,0,1,0,.23c0,.09,0,.18,0,.29l-.26,2h-.8l.26-2.08c0-.11,0-.21,0-.3,0-.31-.18-.46-.54-.46-.52,0-.82.35-.9,1l-.22,1.8h-.81l.76-6.15Z"/></g></g></svg>